<?xml version="1.0" encoding="iso-8859-1"?>
<!-- Generator: Adobe Illustrator 16.0.0, SVG Export Plug-In . SVG Version: 6.00 Build 0)  -->
<!DOCTYPE svg PUBLIC "-//W3C//DTD SVG 1.1//EN" "http://www.w3.org/Graphics/SVG/1.1/DTD/svg11.dtd">
<svg version="1.1" id="Capa_1" xmlns="http://www.w3.org/2000/svg" xmlns:xlink="http://www.w3.org/1999/xlink" x="0px" y="0px"
	 width="529.837px" height="529.837px" viewBox="0 0 529.837 529.837" style="enable-background:new 0 0 529.837 529.837;"
	 xml:space="preserve">
<g>
	<path d="M510.808,190.484c-48.038-37.222-42.298-45.166-120.672-45.166H139.553c-43.6-1.458-93.967,23.245-120.672,49.945
		C5.123,209.024-2.674,212.784,0.84,227.915c4.172,17.989,9.724,35.787,17.695,52.376c7.073,14.738,14.834,29.234,23.475,43.301
		c14.004,22.789,29.144,43.357,55.576,52.855c16.045,5.759,32.408,8.965,49.387,7.943c9.462-0.57,18.034-4.621,26.472-8.808
		c8.394-4.158,16.962-7.999,24.502-13.628c7.486-5.586,15.448-10.785,21.947-17.398c0,0,26.892-26.183,44.951-30.205
		c18.064,4.027,44.947,30.205,44.947,30.205c6.501,6.613,14.463,11.812,21.954,17.398c7.541,5.629,16.119,9.465,24.502,13.628
		c8.438,4.187,17.007,8.237,26.472,8.808c16.979,1.021,33.341-2.185,49.387-7.943c26.435-9.493,41.574-30.066,55.575-52.855
		c8.644-14.062,16.4-28.562,23.476-43.301c7.972-16.589,13.525-34.387,17.698-52.376
		C532.36,212.784,526.512,204.957,510.808,190.484z M132.708,297.051c-33.932-11.537-51.522-50.029-51.522-50.029
		s37.409-19.774,71.341-8.232c33.941,11.537,51.534,50.028,51.534,50.028S166.641,308.592,132.708,297.051z M396.978,297.051
		c-33.939,11.541-71.36-8.233-71.36-8.233s17.604-38.491,51.539-50.028c33.925-11.542,71.346,8.232,71.346,8.232
		S430.902,285.514,396.978,297.051z"/>
</g>
<g>
</g>
<g>
</g>
<g>
</g>
<g>
</g>
<g>
</g>
<g>
</g>
<g>
</g>
<g>
</g>
<g>
</g>
<g>
</g>
<g>
</g>
<g>
</g>
<g>
</g>
<g>
</g>
<g>
</g>
</svg>
