<?xml version="1.0" encoding="UTF-8"?>
<svg xmlns="http://www.w3.org/2000/svg" xmlns:xlink="http://www.w3.org/1999/xlink" version="1.1" id="Layer_1" x="0px" y="0px" viewBox="0 0 16 16" xml:space="preserve">
<path fill="#FFF" id="path3075-1" d="M3.187 14.318c-1.762-1.786-1.553-4.715.564-7.925.385-.584.784-1.114 1.243-1.655l.382-.449.038.401c.058.628.143.972.336 1.365.121.247.32.512.407.589.066.059.035.093.369-.077 2.199-1.2 2.426-3.159 2.302-4.843a6.785 6.785 0 0 0-.287-1.45C8.489.118 8.459-.005 8.475 0c.016.005.29.264.609.576 3.05 2.977 4.7 6.094 4.914 9.284.067 3.656-2.017 5.605-5.05 6.019-2.588.399-4.376-.203-5.761-1.561z"/><metadata><rdf:RDF xmlns:rdf="http://www.w3.org/1999/02/22-rdf-syntax-ns#" xmlns:rdfs="http://www.w3.org/2000/01/rdf-schema#" xmlns:dc="http://purl.org/dc/elements/1.1/"><rdf:Description about="https://iconscout.com/legal#licenses" dc:title="tinder,logo,solid,e" dc:description="tinder,logo,solid,e" dc:publisher="Iconscout" dc:date="2018-03-05" dc:format="image/svg+xml" dc:language="en"><dc:creator><rdf:Bag><rdf:li>Pixel Icons</rdf:li></rdf:Bag></dc:creator></rdf:Description></rdf:RDF></metadata></svg>